<svg xmlns="http://www.w3.org/2000/svg" xmlns:xlink="http://www.w3.org/1999/xlink" width="500" zoomAndPan="magnify" viewBox="0 0 375 374.999991" height="500" preserveAspectRatio="xMidYMid meet" version="1.0"><defs><clipPath id="a1cb8f8b22"><path d="M 37.5 37.5 L 333 37.5 L 333 337.5 L 37.5 337.5 Z M 37.5 37.5 " clip-rule="nonzero"/></clipPath></defs><g clip-path="url(#a1cb8f8b22)"><path fill="#d97095" d="M 322.929688 209.570312 C 293.867188 209.570312 279.289062 244.773438 299.835938 265.320312 C 303.621094 269.105469 303.621094 275.242188 299.835938 279.027344 L 278.96875 299.894531 C 275.183594 303.679688 269.042969 303.679688 265.261719 299.894531 C 253.839844 288.476562 237.894531 287.910156 225.980469 294.648438 L 225.980469 255.652344 C 250.082031 241.503906 266.265625 215.316406 266.265625 185.347656 C 266.265625 140.347656 229.789062 103.871094 184.789062 103.871094 C 139.792969 103.871094 103.316406 140.347656 103.316406 185.347656 C 103.316406 215.542969 119.742188 241.898438 144.144531 255.972656 L 144.144531 294.621094 C 132.238281 287.886719 116.296875 288.460938 104.863281 299.894531 C 101.082031 303.679688 94.941406 303.679688 91.15625 299.894531 L 70.289062 279.027344 C 66.503906 275.242188 66.503906 269.101562 70.289062 265.320312 C 90.835938 244.773438 76.253906 209.570312 47.199219 209.570312 C 41.84375 209.570312 37.503906 205.230469 37.503906 199.875 L 37.503906 170.367188 C 37.503906 165.015625 41.84375 160.671875 47.199219 160.671875 C 76.253906 160.671875 90.835938 125.46875 70.289062 104.925781 C 66.503906 101.140625 66.503906 95 70.289062 91.214844 L 91.15625 70.347656 C 94.941406 66.5625 101.082031 66.5625 104.863281 70.347656 C 125.410156 90.894531 160.617188 76.316406 160.617188 47.257812 C 160.617188 41.902344 164.957031 37.5625 170.308594 37.5625 L 199.816406 37.5625 C 205.171875 37.5625 209.511719 41.902344 209.511719 47.257812 C 209.511719 76.316406 244.714844 90.894531 265.261719 70.347656 C 269.046875 66.5625 275.183594 66.5625 278.96875 70.347656 L 299.835938 91.214844 C 303.621094 95 303.621094 101.140625 299.835938 104.925781 C 279.289062 125.46875 293.867188 160.671875 322.929688 160.671875 C 328.285156 160.671875 332.621094 165.015625 332.621094 170.367188 L 332.621094 199.875 C 332.621094 205.230469 328.28125 209.570312 322.929688 209.570312 Z M 153.796875 131.804688 C 135.417969 142.5625 123.066406 162.511719 123.066406 185.347656 C 123.066406 211.878906 139.734375 234.511719 163.167969 243.359375 L 163.167969 337.4375 L 206.960938 337.4375 L 206.960938 243.359375 C 230.390625 234.511719 247.058594 211.878906 247.058594 185.347656 C 247.058594 162.511719 234.710938 142.5625 216.328125 131.804688 L 216.328125 191.394531 L 185.0625 209.445312 L 153.796875 191.394531 Z M 153.796875 131.804688 " fill-opacity="1" fill-rule="evenodd"/></g></svg>