<svg xmlns="http://www.w3.org/2000/svg" xmlns:xlink="http://www.w3.org/1999/xlink" width="500" zoomAndPan="magnify" viewBox="0 0 375 374.999991" height="500" preserveAspectRatio="xMidYMid meet" version="1.0"><defs><clipPath id="be9affc657"><path d="M 148 282 L 227 282 L 227 337.5 L 148 337.5 Z M 148 282 " clip-rule="nonzero"/></clipPath><clipPath id="8c4de323e0"><path d="M 178 37.5 L 197 37.5 L 197 79 L 178 79 Z M 178 37.5 " clip-rule="nonzero"/></clipPath><clipPath id="bd2fb75057"><path d="M 52.3125 163 L 93 163 L 93 182 L 52.3125 182 Z M 52.3125 163 " clip-rule="nonzero"/></clipPath></defs><g clip-path="url(#be9affc657)"><path fill="#b3476e" d="M 222.695312 282.992188 L 152.335938 282.992188 C 150.335938 282.992188 148.714844 284.613281 148.714844 286.613281 L 148.714844 311.167969 C 148.714844 313.167969 150.339844 314.789062 152.335938 314.789062 L 160.667969 314.789062 C 162.832031 327.671875 174.011719 337.5 187.511719 337.5 C 201.011719 337.5 212.191406 327.671875 214.359375 314.789062 L 222.691406 314.789062 C 224.695312 314.789062 226.3125 313.164062 226.3125 311.167969 L 226.3125 286.613281 C 226.3125 284.613281 224.691406 282.992188 222.691406 282.992188 Z M 222.695312 282.992188 " fill-opacity="1" fill-rule="nonzero"/></g><g clip-path="url(#8c4de323e0)"><path fill="#b3476e" d="M 187.515625 78.097656 C 192.535156 78.097656 196.601562 74.03125 196.601562 69.011719 L 196.601562 46.585938 C 196.601562 41.566406 192.535156 37.5 187.515625 37.5 C 182.496094 37.5 178.429688 41.566406 178.429688 46.585938 L 178.429688 69.011719 C 178.429688 74.03125 182.496094 78.097656 187.515625 78.097656 Z M 187.515625 78.097656 " fill-opacity="1" fill-rule="nonzero"/></g><path fill="#b3476e" d="M 127.835938 87.441406 C 129.515625 90.355469 132.570312 91.984375 135.710938 91.984375 C 137.25 91.984375 138.816406 91.59375 140.246094 90.765625 C 144.589844 88.261719 146.078125 82.703125 143.570312 78.355469 L 132.355469 58.933594 C 129.847656 54.585938 124.292969 53.09375 119.945312 55.605469 C 115.601562 58.113281 114.113281 63.671875 116.621094 68.019531 Z M 127.835938 87.441406 " fill-opacity="1" fill-rule="nonzero"/><path fill="#b3476e" d="M 102.3125 112.960938 L 82.886719 101.746094 C 78.542969 99.238281 72.984375 100.726562 70.476562 105.074219 C 67.96875 109.417969 69.457031 114.976562 73.804688 117.484375 L 93.226562 128.695312 C 94.65625 129.523438 96.222656 129.914062 97.761719 129.914062 C 100.902344 129.914062 103.957031 128.285156 105.636719 125.371094 C 108.144531 121.027344 106.65625 115.46875 102.3125 112.960938 Z M 102.3125 112.960938 " fill-opacity="1" fill-rule="nonzero"/><g clip-path="url(#bd2fb75057)"><path fill="#b3476e" d="M 92.976562 172.640625 C 92.976562 167.625 88.90625 163.558594 83.890625 163.558594 L 61.457031 163.558594 C 56.441406 163.558594 52.375 167.625 52.375 172.640625 C 52.375 177.660156 56.441406 181.726562 61.457031 181.726562 L 83.890625 181.726562 C 88.90625 181.726562 92.976562 177.660156 92.976562 172.640625 Z M 92.976562 172.640625 " fill-opacity="1" fill-rule="nonzero"/></g><path fill="#b3476e" d="M 93.226562 216.585938 L 73.804688 227.800781 C 69.457031 230.308594 67.96875 235.867188 70.476562 240.210938 C 72.15625 243.125 75.214844 244.753906 78.355469 244.753906 C 79.894531 244.753906 81.457031 244.363281 82.886719 243.535156 L 102.3125 232.324219 C 106.65625 229.816406 108.144531 224.257812 105.636719 219.914062 C 103.128906 215.570312 97.574219 214.074219 93.226562 216.585938 Z M 93.226562 216.585938 " fill-opacity="1" fill-rule="nonzero"/><path fill="#b3476e" d="M 301.226562 227.800781 L 281.800781 216.585938 C 277.457031 214.074219 271.898438 215.570312 269.390625 219.914062 C 266.882812 224.257812 268.371094 229.816406 272.714844 232.324219 L 292.140625 243.535156 C 293.570312 244.363281 295.132812 244.753906 296.675781 244.753906 C 299.816406 244.753906 302.871094 243.125 304.550781 240.210938 C 307.058594 235.867188 305.570312 230.308594 301.226562 227.800781 Z M 301.226562 227.800781 " fill-opacity="1" fill-rule="nonzero"/><path fill="#b3476e" d="M 313.574219 163.558594 L 291.144531 163.558594 C 286.128906 163.558594 282.058594 167.625 282.058594 172.640625 C 282.058594 177.660156 286.128906 181.726562 291.144531 181.726562 L 313.574219 181.726562 C 318.589844 181.726562 322.65625 177.660156 322.65625 172.640625 C 322.65625 167.625 318.589844 163.558594 313.574219 163.558594 Z M 313.574219 163.558594 " fill-opacity="1" fill-rule="nonzero"/><path fill="#b3476e" d="M 277.265625 129.914062 C 278.808594 129.914062 280.371094 129.523438 281.800781 128.695312 L 301.226562 117.484375 C 305.570312 114.976562 307.058594 109.417969 304.550781 105.074219 C 302.042969 100.726562 296.488281 99.238281 292.140625 101.746094 L 272.714844 112.960938 C 268.371094 115.46875 266.882812 121.027344 269.390625 125.371094 C 271.070312 128.285156 274.125 129.914062 277.265625 129.914062 Z M 277.265625 129.914062 " fill-opacity="1" fill-rule="nonzero"/><path fill="#b3476e" d="M 234.785156 90.765625 C 236.21875 91.59375 237.78125 91.984375 239.320312 91.984375 C 242.464844 91.984375 245.515625 90.355469 247.195312 87.441406 L 258.410156 68.019531 C 260.917969 63.671875 259.429688 58.113281 255.085938 55.605469 C 250.738281 53.09375 245.183594 54.585938 242.675781 58.933594 L 231.460938 78.355469 C 228.953125 82.703125 230.441406 88.261719 234.785156 90.765625 Z M 234.785156 90.765625 " fill-opacity="1" fill-rule="nonzero"/><path fill="#b3476e" d="M 191.132812 95.5 C 165.859375 94.339844 142.109375 105.199219 126.121094 125.742188 C 117.664062 136.605469 112.359375 149.753906 110.8125 163.4375 C 108.453125 184.324219 114.136719 204.28125 126.859375 220.425781 C 136.128906 232.179688 142.515625 243.546875 146.390625 255.171875 L 147.9375 259.804688 C 148.675781 262.011719 150.742188 263.496094 153.070312 263.496094 L 221.957031 263.496094 C 224.289062 263.496094 226.355469 262.007812 227.09375 259.796875 L 228.636719 255.167969 C 232.425781 243.800781 238.558594 232.753906 247.375 221.433594 C 254.308594 212.53125 259.703125 202.390625 262.410156 191.429688 C 274.492188 142.523438 237.867188 97.644531 191.132812 95.5 Z M 188.972656 233.199219 C 183.027344 233.199219 178.210938 228.382812 178.210938 222.4375 C 178.210938 216.496094 183.023438 211.675781 188.972656 211.675781 C 194.917969 211.675781 199.734375 216.496094 199.734375 222.4375 C 199.734375 228.382812 194.914062 233.199219 188.972656 233.199219 Z M 214.980469 177.414062 C 210.777344 183.132812 206.507812 186.128906 203.386719 188.320312 C 199.851562 190.796875 198.339844 191.859375 197.914062 197.644531 C 197.726562 200.203125 195.539062 202.171875 192.976562 202.171875 L 185.242188 202.171875 C 182.347656 202.171875 180.042969 199.664062 180.273438 196.78125 C 181.339844 183.265625 186.585938 178.472656 193.214844 173.820312 C 195.902344 171.933594 198.226562 170.300781 200.707031 166.921875 C 203.21875 163.507812 203.511719 158.882812 201.472656 154.855469 C 200.09375 152.128906 196.492188 147.550781 187.871094 147.550781 C 176.613281 147.550781 173.167969 154.640625 172.191406 160.167969 C 171.765625 162.566406 169.738281 164.316406 167.308594 164.316406 L 159.492188 164.316406 C 156.484375 164.316406 154.101562 161.652344 154.53125 158.671875 C 156.671875 143.902344 167.300781 129.839844 187.871094 129.839844 C 200.890625 129.839844 211.882812 136.195312 217.273438 146.859375 C 222.34375 156.878906 221.464844 168.585938 214.976562 177.410156 Z M 214.980469 177.414062 " fill-opacity="1" fill-rule="nonzero"/></svg>