<svg xmlns="http://www.w3.org/2000/svg" xmlns:xlink="http://www.w3.org/1999/xlink" width="500" zoomAndPan="magnify" viewBox="0 0 375 374.999991" height="500" preserveAspectRatio="xMidYMid meet" version="1.0"><defs><clipPath id="a58ea746ef"><path d="M 37.5 37.5 L 337.5 37.5 L 337.5 337.5 L 37.5 337.5 Z M 37.5 37.5 " clip-rule="nonzero"/></clipPath></defs><g clip-path="url(#a58ea746ef)"><path fill="#d97095" d="M 187.488281 295.90625 C 198.964844 295.90625 208.308594 305.238281 208.308594 316.710938 C 208.308594 328.179688 198.964844 337.511719 187.488281 337.511719 C 176.015625 337.511719 166.683594 328.179688 166.683594 316.710938 C 166.683594 305.238281 176.023438 295.90625 187.488281 295.90625 Z M 266.773438 277.671875 L 329.804688 277.671875 C 334.046875 277.671875 337.5 281.125 337.5 285.367188 L 337.5 305.628906 C 337.5 309.871094 334.046875 313.320312 329.804688 313.320312 L 266.773438 313.320312 C 262.53125 313.320312 259.078125 309.871094 259.078125 305.628906 L 259.078125 285.367188 C 259.078125 281.125 262.527344 277.671875 266.773438 277.671875 Z M 331.226562 302.578125 C 331.226562 300.992188 329.941406 299.710938 328.359375 299.710938 L 268.21875 299.710938 C 266.632812 299.710938 265.351562 300.992188 265.351562 302.578125 C 265.351562 304.15625 266.632812 305.441406 268.21875 305.441406 L 328.359375 305.441406 C 329.933594 305.441406 331.226562 304.15625 331.226562 302.578125 Z M 268.21875 285.550781 C 266.632812 285.550781 265.351562 286.835938 265.351562 288.417969 C 265.351562 290.003906 266.632812 291.285156 268.21875 291.285156 L 328.359375 291.285156 C 329.941406 291.285156 331.226562 290.003906 331.226562 288.417969 C 331.226562 286.835938 329.941406 285.550781 328.359375 285.550781 Z M 79.578125 253.714844 C 79.578125 251.117188 81.679688 249.003906 84.269531 249.003906 L 158.90625 249.003906 C 173.085938 249.035156 184.628906 260.609375 184.628906 274.804688 L 184.628906 290.335938 C 185.570312 290.226562 186.527344 290.175781 187.492188 290.175781 C 188.460938 290.175781 189.417969 290.226562 190.359375 290.335938 L 190.359375 274.804688 C 190.359375 260.609375 201.90625 249.035156 216.097656 249.003906 L 290.714844 249.003906 C 293.300781 249.003906 295.410156 251.117188 295.410156 253.714844 L 295.410156 271.941406 L 301.144531 271.941406 L 301.144531 253.714844 C 301.144531 247.957031 296.46875 243.269531 290.714844 243.269531 L 216.085938 243.269531 C 201.886719 243.226562 190.359375 231.671875 190.359375 217.480469 L 190.359375 198.765625 C 189.449219 198.800781 188.472656 198.8125 187.4375 198.8125 L 187.359375 198.8125 C 186.4375 198.8125 185.519531 198.800781 184.628906 198.765625 L 184.628906 217.480469 C 184.628906 231.671875 173.105469 243.226562 158.921875 243.269531 L 84.269531 243.269531 C 78.519531 243.269531 73.84375 247.957031 73.84375 253.714844 L 73.84375 271.941406 L 79.578125 271.941406 Z M 110.703125 126.5625 C 109.320312 122.84375 109.320312 107.734375 110.703125 104.015625 L 125.128906 100.734375 C 126.164062 100.5 126.984375 99.714844 127.265625 98.699219 C 128.613281 93.753906 130.59375 88.964844 133.148438 84.457031 C 133.671875 83.539062 133.640625 82.410156 133.078125 81.519531 L 125.207031 69.003906 C 126.855469 65.390625 137.539062 54.710938 141.148438 53.058594 L 153.664062 60.945312 C 154.558594 61.511719 155.691406 61.539062 156.613281 61.015625 C 161.097656 58.457031 165.886719 56.472656 170.84375 55.113281 C 171.863281 54.835938 172.644531 54.015625 172.882812 52.984375 L 176.164062 38.578125 C 179.894531 37.199219 194.984375 37.207031 198.714844 38.578125 L 201.996094 52.984375 C 202.226562 54.015625 203.007812 54.832031 204.023438 55.113281 C 209.054688 56.507812 213.84375 58.492188 218.246094 61.007812 C 219.164062 61.539062 220.296875 61.511719 221.195312 60.953125 L 233.75 53.046875 C 237.410156 54.660156 247.996094 65.285156 249.664062 69.007812 L 241.78125 81.511719 C 241.214844 82.40625 241.1875 83.539062 241.710938 84.457031 C 244.265625 88.964844 246.246094 93.753906 247.59375 98.699219 C 247.875 99.714844 248.691406 100.5 249.722656 100.734375 L 264.265625 104.042969 C 264.734375 105.296875 265.421875 108.953125 265.359375 115.320312 C 265.308594 121.058594 264.664062 125.085938 264.148438 126.570312 L 249.722656 129.84375 C 248.691406 130.078125 247.875 130.863281 247.59375 131.882812 C 246.246094 136.824219 244.265625 141.613281 241.710938 146.125 C 241.1875 147.042969 241.214844 148.167969 241.78125 149.066406 L 249.683594 161.601562 C 248.074219 165.257812 237.449219 175.84375 233.714844 177.511719 L 221.195312 169.628906 C 220.296875 169.066406 219.164062 169.042969 218.246094 169.570312 C 213.84375 172.085938 209.054688 174.074219 204.023438 175.46875 C 203.007812 175.75 202.226562 176.5625 201.996094 177.59375 L 198.714844 192.007812 C 194.976562 193.390625 179.871094 193.40625 176.164062 192.023438 L 172.882812 177.59375 C 172.644531 176.5625 171.863281 175.742188 170.84375 175.46875 C 165.886719 174.105469 161.097656 172.125 156.613281 169.5625 C 155.691406 169.042969 154.558594 169.066406 153.664062 169.628906 L 141.125 177.539062 C 137.460938 175.941406 126.871094 165.300781 125.214844 161.570312 L 133.078125 149.058594 C 133.640625 148.167969 133.671875 147.042969 133.148438 146.125 C 130.59375 141.613281 128.613281 136.824219 127.265625 131.882812 C 126.984375 130.863281 126.164062 130.078125 125.128906 129.84375 Z M 151.097656 115.289062 C 151.097656 135.359375 167.421875 151.691406 187.488281 151.691406 C 207.558594 151.691406 223.886719 135.359375 223.886719 115.289062 C 223.886719 95.226562 207.558594 78.902344 187.488281 78.902344 C 167.421875 78.902344 151.097656 95.226562 151.097656 115.289062 Z M 37.5 305.628906 L 37.5 285.367188 C 37.5 281.125 40.953125 277.671875 45.195312 277.671875 L 108.226562 277.671875 C 112.46875 277.671875 115.921875 281.125 115.921875 285.367188 L 115.921875 305.628906 C 115.921875 309.871094 112.46875 313.320312 108.226562 313.320312 L 45.195312 313.320312 C 40.957031 313.320312 37.5 309.871094 37.5 305.628906 Z M 43.773438 288.417969 C 43.773438 290.003906 45.054688 291.285156 46.640625 291.285156 L 106.78125 291.285156 C 108.367188 291.285156 109.648438 290.003906 109.648438 288.417969 C 109.648438 286.835938 108.367188 285.550781 106.78125 285.550781 L 46.640625 285.550781 C 45.054688 285.550781 43.773438 286.835938 43.773438 288.417969 Z M 43.773438 302.578125 C 43.773438 304.15625 45.054688 305.441406 46.640625 305.441406 L 106.78125 305.441406 C 108.367188 305.441406 109.648438 304.15625 109.648438 302.578125 C 109.648438 300.992188 108.367188 299.710938 106.78125 299.710938 L 46.640625 299.710938 C 45.054688 299.710938 43.773438 300.992188 43.773438 302.578125 Z M 162.035156 130.035156 L 174.296875 98.472656 C 174.722656 97.371094 175.785156 96.648438 176.964844 96.648438 L 180.953125 96.648438 C 182.136719 96.648438 183.195312 97.371094 183.621094 98.472656 L 195.882812 130.035156 C 196.457031 131.511719 195.722656 133.167969 194.246094 133.742188 C 193.902344 133.875 193.550781 133.941406 193.207031 133.941406 C 192.058594 133.941406 190.976562 133.246094 190.53125 132.113281 L 186.289062 121.195312 L 171.609375 121.195312 L 167.367188 132.113281 C 166.792969 133.589844 165.128906 134.320312 163.660156 133.75 C 162.1875 133.167969 161.460938 131.511719 162.035156 130.035156 Z M 173.84375 115.457031 L 184.074219 115.457031 L 178.992188 102.371094 L 178.921875 102.371094 Z M 210.296875 133.957031 C 211.882812 133.957031 213.164062 132.679688 213.164062 131.09375 L 213.164062 99.511719 C 213.164062 97.925781 211.882812 96.648438 210.296875 96.648438 C 208.710938 96.648438 207.429688 97.925781 207.429688 99.511719 L 207.429688 131.09375 C 207.429688 132.671875 208.710938 133.957031 210.296875 133.957031 Z M 210.296875 133.957031 " fill-opacity="1" fill-rule="nonzero"/></g></svg>