<svg xmlns="http://www.w3.org/2000/svg" xmlns:xlink="http://www.w3.org/1999/xlink" width="500" zoomAndPan="magnify" viewBox="0 0 375 374.999991" height="500" preserveAspectRatio="xMidYMid meet" version="1.0"><defs><clipPath id="b556aee9c2"><path d="M 37.5 72.9375 L 337.5 72.9375 L 337.5 302.4375 L 37.5 302.4375 Z M 37.5 72.9375 " clip-rule="nonzero"/></clipPath></defs><g clip-path="url(#b556aee9c2)"><path fill="#b3476e" d="M 189.195312 112.917969 L 193.65625 108.808594 C 181.585938 98.621094 163.769531 95.855469 149.5625 102.414062 C 147.730469 103.261719 145.5625 102.835938 144.179688 101.363281 C 142.800781 99.886719 142.523438 97.695312 143.492188 95.921875 C 145.675781 91.914062 148.53125 88.285156 151.976562 85.128906 C 170.1875 68.378906 199.679688 69.058594 218.5625 85.914062 L 223.429688 81.421875 C 224.777344 80.175781 226.734375 79.832031 228.429688 80.550781 C 230.121094 81.269531 231.238281 82.910156 231.285156 84.746094 L 232.082031 117.042969 C 232.113281 118.324219 231.617188 119.558594 230.714844 120.464844 C 229.835938 121.347656 228.640625 121.839844 227.398438 121.839844 C 227.363281 121.839844 227.328125 121.839844 227.292969 121.839844 L 192.257812 121.042969 C 190.347656 121 188.65625 119.800781 187.984375 118.011719 C 187.308594 116.226562 187.789062 114.210938 189.195312 112.917969 Z M 269.074219 262.230469 L 207.722656 226.816406 C 206.273438 225.980469 205.382812 224.433594 205.382812 222.761719 L 205.382812 151.910156 C 205.382812 150.238281 206.273438 148.691406 207.722656 147.855469 L 269.074219 112.4375 C 270.523438 111.601562 272.308594 111.601562 273.757812 112.4375 L 335.109375 147.855469 C 336.558594 148.691406 337.449219 150.238281 337.449219 151.910156 L 337.449219 222.757812 C 337.449219 224.433594 336.558594 225.976562 335.109375 226.816406 L 273.757812 262.230469 C 273.035156 262.648438 272.226562 262.859375 271.417969 262.859375 C 270.609375 262.859375 269.800781 262.648438 269.074219 262.230469 Z M 328.085938 160.015625 L 276.097656 190.046875 L 276.097656 250.066406 L 328.085938 220.058594 Z M 266.734375 190.046875 L 214.746094 160.03125 L 214.746094 220.054688 L 266.734375 250.066406 Z M 48.558594 207.785156 L 48.558594 166.886719 C 42.1875 164.890625 37.550781 158.933594 37.550781 151.910156 C 37.550781 143.269531 44.589844 136.238281 53.238281 136.238281 C 57.328125 136.238281 61.054688 137.8125 63.847656 140.386719 L 99.285156 119.925781 C 99.035156 118.820312 98.902344 117.671875 98.902344 116.492188 C 98.902344 107.839844 105.941406 100.804688 114.589844 100.804688 C 123.234375 100.804688 130.265625 107.839844 130.265625 116.492188 C 130.265625 117.671875 130.132812 118.820312 129.882812 119.925781 L 165.316406 140.382812 C 168.109375 137.8125 171.835938 136.234375 175.925781 136.234375 C 184.578125 136.234375 191.617188 143.265625 191.617188 151.910156 C 191.617188 158.933594 186.980469 164.890625 180.609375 166.886719 L 180.609375 207.78125 C 186.980469 209.777344 191.617188 215.738281 191.617188 222.757812 C 191.617188 231.410156 184.578125 238.449219 175.925781 238.449219 C 171.832031 238.449219 168.105469 236.871094 165.308594 234.289062 L 129.886719 254.757812 C 130.132812 255.859375 130.265625 257 130.265625 258.175781 C 130.265625 266.828125 123.234375 273.867188 114.589844 273.867188 C 105.941406 273.867188 98.902344 266.828125 98.902344 258.175781 C 98.902344 257 99.035156 255.859375 99.28125 254.757812 L 63.855469 234.289062 C 61.0625 236.871094 57.332031 238.449219 53.238281 238.449219 C 44.589844 238.449219 37.550781 231.414062 37.550781 222.761719 C 37.550781 215.738281 42.1875 209.78125 48.558594 207.785156 Z M 120.902344 258.175781 C 120.902344 254.6875 118.070312 251.851562 114.59375 251.851562 C 111.105469 251.851562 108.265625 254.6875 108.265625 258.175781 C 108.265625 261.664062 111.105469 264.503906 114.59375 264.503906 C 118.070312 264.503906 120.902344 261.664062 120.902344 258.175781 Z M 114.59375 193.652344 C 118.070312 193.652344 120.902344 190.824219 120.902344 187.34375 C 120.902344 183.855469 118.070312 181.019531 114.59375 181.019531 C 111.105469 181.019531 108.265625 183.855469 108.265625 187.34375 C 108.265625 190.824219 111.105469 193.652344 114.59375 193.652344 Z M 169.617188 151.910156 C 169.617188 155.398438 172.449219 158.238281 175.925781 158.238281 C 179.414062 158.238281 182.253906 155.398438 182.253906 151.910156 C 182.253906 148.433594 179.414062 145.601562 175.925781 145.601562 C 172.449219 145.601562 169.617188 148.433594 169.617188 151.910156 Z M 129.882812 183.910156 C 130.132812 185.015625 130.265625 186.164062 130.265625 187.34375 C 130.265625 194.355469 125.636719 200.308594 119.273438 202.300781 L 119.273438 243.199219 C 121.507812 243.902344 123.527344 245.09375 125.207031 246.644531 L 160.632812 226.179688 C 160.386719 225.078125 160.253906 223.933594 160.253906 222.757812 C 160.253906 215.738281 164.882812 209.78125 171.246094 207.785156 L 171.246094 166.886719 C 169.015625 166.183594 167 165 165.320312 163.449219 Z M 68.914062 151.910156 C 68.914062 153.089844 68.78125 154.238281 68.53125 155.34375 L 103.972656 175.804688 C 106.769531 173.230469 110.5 171.652344 114.589844 171.652344 C 118.679688 171.652344 122.402344 173.230469 125.199219 175.804688 L 160.636719 155.34375 C 160.386719 154.238281 160.253906 153.089844 160.253906 151.910156 C 160.253906 150.738281 160.386719 149.59375 160.632812 148.492188 L 125.199219 128.035156 C 122.40625 130.609375 118.679688 132.183594 114.589844 132.183594 C 110.5 132.183594 106.769531 130.609375 103.972656 128.03125 L 68.535156 148.492188 C 68.78125 149.59375 68.914062 150.738281 68.914062 151.910156 Z M 63.847656 163.449219 C 62.167969 165 60.152344 166.183594 57.921875 166.886719 L 57.921875 207.785156 C 64.285156 209.78125 68.914062 215.738281 68.914062 222.757812 C 68.914062 223.933594 68.78125 225.078125 68.535156 226.179688 L 103.960938 246.648438 C 105.648438 245.09375 107.671875 243.902344 109.910156 243.199219 L 109.910156 202.304688 C 103.539062 200.308594 98.902344 194.359375 98.902344 187.34375 C 98.902344 186.164062 99.035156 185.015625 99.285156 183.910156 Z M 53.238281 158.238281 C 56.71875 158.238281 59.550781 155.398438 59.550781 151.910156 C 59.550781 148.433594 56.71875 145.601562 53.238281 145.601562 C 49.75 145.601562 46.914062 148.433594 46.914062 151.910156 C 46.914062 155.398438 49.753906 158.238281 53.238281 158.238281 Z M 187.015625 256.90625 C 186.34375 255.121094 184.652344 253.921875 182.742188 253.878906 L 147.707031 253.078125 C 146.433594 253.046875 145.191406 253.546875 144.285156 254.453125 C 143.382812 255.359375 142.886719 256.597656 142.917969 257.875 L 143.71875 290.171875 C 143.761719 292.007812 144.878906 293.648438 146.570312 294.367188 C 148.265625 295.085938 150.21875 294.746094 151.570312 293.5 L 156.4375 289.019531 C 166.082031 297.632812 178.5 302.023438 190.765625 302.023438 C 202.507812 302.023438 214.117188 298 223.023438 289.808594 C 226.457031 286.664062 229.3125 283.027344 231.507812 278.996094 C 232.476562 277.226562 232.199219 275.03125 230.820312 273.558594 C 229.4375 272.082031 227.269531 271.660156 225.4375 272.503906 C 211.222656 279.070312 193.40625 276.304688 181.339844 266.113281 L 185.804688 262.003906 C 187.210938 260.710938 187.691406 258.691406 187.015625 256.90625 Z M 187.015625 256.90625 " fill-opacity="1" fill-rule="nonzero"/></g></svg>