<svg xmlns="http://www.w3.org/2000/svg" xmlns:xlink="http://www.w3.org/1999/xlink" width="500" zoomAndPan="magnify" viewBox="0 0 375 374.999991" height="500" preserveAspectRatio="xMidYMid meet" version="1.0"><defs><clipPath id="140f843341"><path d="M 37.5 65.25 L 337.5 65.25 L 337.5 309.75 L 37.5 309.75 Z M 37.5 65.25 " clip-rule="nonzero"/></clipPath></defs><g clip-path="url(#140f843341)"><path fill="#b3476e" d="M 63.996094 118.121094 C 65.21875 116.460938 67.550781 116.089844 69.214844 117.292969 C 70.875 118.511719 71.230469 120.847656 70.027344 122.507812 C 57.136719 140.191406 50.132812 160.859375 49.054688 181.796875 C 47.960938 202.875 52.875 224.21875 63.804688 243.03125 C 64.828125 244.816406 64.226562 247.097656 62.441406 248.125 C 60.65625 249.167969 58.375 248.546875 57.332031 246.761719 C 45.679688 226.691406 40.445312 203.917969 41.59375 181.40625 C 42.761719 159.09375 50.222656 137.023438 63.996094 118.121094 Z M 90.097656 283.066406 C 88.433594 281.863281 88.0625 279.527344 89.265625 277.867188 C 90.484375 276.203125 92.820312 275.832031 94.480469 277.050781 C 114.851562 291.90625 139.183594 298.925781 163.285156 298.113281 C 187.242188 297.296875 210.972656 288.742188 230.441406 272.453125 C 232.015625 271.128906 234.386719 271.339844 235.695312 272.914062 C 237.019531 274.507812 236.808594 276.859375 235.234375 278.183594 C 214.457031 295.566406 189.117188 304.691406 163.53125 305.554688 C 137.804688 306.421875 111.863281 298.925781 90.097656 283.0625 Z M 228.957031 92.023438 C 230.621094 93.242188 230.992188 95.558594 229.769531 97.222656 C 228.566406 98.902344 226.234375 99.253906 224.570312 98.054688 C 185.9375 69.902344 133.117188 69.902344 94.480469 98.054688 C 92.820312 99.253906 90.484375 98.902344 89.265625 97.222656 C 88.0625 95.558594 88.433594 93.242188 90.097656 92.023438 C 131.402344 61.929688 187.667969 61.929688 228.957031 92.023438 Z M 201.070312 100.300781 C 198.683594 100.386719 196.667969 98.511719 196.582031 96.109375 C 196.492188 93.703125 198.367188 91.6875 200.769531 91.617188 L 219.921875 90.925781 L 210.636719 71.8125 C 209.578125 69.636719 210.496094 67.039062 212.652344 65.996094 C 214.828125 64.953125 217.429688 65.855469 218.472656 68.027344 L 230.691406 93.136719 C 232.035156 95.929688 230.105469 99.273438 226.921875 99.378906 Z M 117.964844 274.789062 C 120.371094 274.699219 122.386719 276.59375 122.472656 278.980469 C 122.5625 281.382812 120.6875 283.402344 118.28125 283.488281 L 99.132812 284.179688 L 108.417969 303.292969 C 109.460938 305.449219 108.558594 308.066406 106.398438 309.109375 C 104.226562 310.152344 101.625 309.234375 100.582031 307.078125 L 88.363281 281.949219 C 87.019531 279.175781 88.949219 275.832031 92.128906 275.707031 Z M 72.289062 145.992188 C 72.363281 148.394531 70.488281 150.410156 68.082031 150.5 C 65.675781 150.585938 63.660156 148.695312 63.589844 146.308594 L 62.902344 127.160156 L 43.785156 136.441406 C 41.613281 137.484375 39.011719 136.582031 37.96875 134.410156 C 36.925781 132.25 37.828125 129.652344 40.003906 128.589844 L 65.128906 116.390625 C 67.90625 115.046875 71.246094 116.972656 71.371094 120.15625 Z M 267.558594 143.886719 C 289.785156 143.886719 307.804688 161.90625 307.804688 184.132812 C 307.804688 206.339844 289.785156 224.359375 267.558594 224.359375 C 245.332031 224.359375 227.3125 206.339844 227.3125 184.132812 C 227.3125 161.90625 245.332031 143.886719 267.558594 143.886719 Z M 295.707031 134.921875 C 291.464844 132.480469 286.921875 130.605469 282.214844 129.367188 C 280.464844 128.910156 279.335938 127.28125 279.441406 125.53125 L 279.441406 115.117188 C 271.605469 113.789062 263.527344 113.773438 255.691406 115.117188 L 255.691406 125.761719 C 255.691406 127.582031 254.402344 129.105469 252.667969 129.421875 C 248.585938 130.375 242.890625 132.90625 239.195312 135.042969 C 237.691406 135.910156 235.851562 135.628906 234.6875 134.460938 L 234.667969 134.460938 L 227.152344 126.929688 C 220.683594 131.527344 214.953125 137.238281 210.371094 143.710938 L 217.886719 151.242188 C 219.179688 152.515625 219.339844 154.511719 218.347656 155.964844 C 216.136719 159.550781 213.890625 165.386719 212.796875 169.472656 C 212.371094 171.152344 210.851562 172.25 209.1875 172.25 L 209.1875 172.265625 L 198.5625 172.265625 C 197.21875 180.082031 197.21875 188.164062 198.5625 195.996094 L 209.1875 195.996094 C 211.007812 195.996094 212.53125 197.285156 212.867188 199.019531 C 213.820312 203.105469 216.332031 208.796875 218.488281 212.492188 C 219.355469 213.996094 219.054688 215.835938 217.886719 217.003906 L 210.371094 224.535156 C 214.953125 231.007812 220.683594 236.738281 227.152344 241.316406 L 234.667969 233.785156 C 235.960938 232.511719 237.957031 232.351562 239.40625 233.324219 C 242.980469 235.550781 248.816406 237.796875 252.898438 238.875 C 254.648438 239.335938 255.78125 240.980469 255.675781 242.714844 L 255.675781 253.128906 C 263.507812 254.472656 271.589844 254.472656 279.421875 253.128906 L 279.421875 242.484375 C 279.421875 240.660156 280.730469 239.160156 282.445312 238.824219 C 286.546875 237.867188 292.226562 235.355469 295.9375 233.199219 C 297.421875 232.332031 299.28125 232.632812 300.445312 233.800781 L 300.445312 233.785156 L 307.980469 241.316406 C 314.433594 236.738281 320.164062 231.007812 324.742188 224.535156 L 317.226562 217.019531 C 315.9375 215.730469 315.796875 213.730469 316.769531 212.28125 C 318.996094 208.691406 321.242188 202.875 322.320312 198.773438 C 322.78125 197.039062 324.40625 195.90625 326.15625 195.996094 L 336.574219 195.996094 C 337.898438 188.164062 337.898438 180.082031 336.574219 172.25 L 325.925781 172.25 C 324.195312 172.25 322.746094 171.0625 322.320312 169.472656 C 321.03125 164.644531 319.15625 160.101562 316.644531 155.75 C 315.777344 154.265625 316.0625 152.410156 317.226562 151.242188 L 324.742188 143.710938 C 320.164062 137.253906 314.433594 131.527344 307.980469 126.929688 L 300.445312 134.460938 C 299.15625 135.753906 297.175781 135.894531 295.707031 134.921875 Z M 211.167969 130.960938 C 208.765625 128.769531 206.164062 126.679688 203.511719 124.808594 L 195.113281 133.207031 C 193.820312 134.496094 191.839844 134.636719 190.390625 133.664062 C 186.464844 131.226562 180.066406 128.769531 175.574219 127.566406 C 173.894531 127.125 172.796875 125.621094 172.796875 123.957031 L 172.78125 123.957031 L 172.78125 112.09375 C 164.027344 110.554688 155.007812 110.554688 146.273438 112.09375 L 146.273438 123.957031 C 146.273438 125.777344 144.964844 127.300781 143.234375 127.636719 C 138.757812 128.679688 132.515625 131.4375 128.449219 133.789062 C 126.945312 134.65625 125.109375 134.371094 123.941406 133.207031 L 115.542969 124.808594 C 108.292969 129.917969 101.890625 136.300781 96.78125 143.566406 L 105.179688 151.949219 C 106.472656 153.238281 106.613281 155.238281 105.640625 156.6875 C 103.199219 160.613281 100.742188 167.015625 99.558594 171.488281 C 99.113281 173.167969 97.59375 174.28125 95.933594 174.28125 L 84.066406 174.28125 C 82.546875 183.035156 82.546875 192.054688 84.066406 200.804688 L 95.933594 200.804688 C 97.769531 200.804688 99.273438 202.113281 99.609375 203.828125 C 100.652344 208.320312 103.410156 214.5625 105.765625 218.628906 C 106.628906 220.113281 106.347656 221.972656 105.179688 223.140625 L 96.78125 231.539062 C 101.890625 238.789062 108.292969 245.1875 115.542969 250.28125 L 123.941406 241.898438 C 125.214844 240.609375 127.210938 240.449219 128.664062 241.441406 C 132.589844 243.878906 138.988281 246.339844 143.480469 247.523438 C 145.230469 247.984375 146.363281 249.609375 146.257812 251.359375 L 146.257812 263.011719 C 150.660156 263.773438 155.097656 264.160156 159.519531 264.160156 L 159.519531 264.144531 C 163.972656 264.144531 168.414062 263.773438 172.78125 263.011719 L 172.78125 251.128906 C 172.78125 249.308594 174.089844 247.789062 175.820312 247.453125 C 180.296875 246.425781 186.535156 243.648438 190.605469 241.296875 C 192.089844 240.433594 193.945312 240.734375 195.113281 241.898438 L 203.511719 250.28125 C 207.527344 247.46875 211.257812 244.285156 214.652344 240.75 C 214.015625 240.148438 213.378906 239.546875 212.761719 238.929688 C 208.941406 235.109375 205.527344 230.882812 202.539062 226.304688 C 201.460938 224.835938 201.566406 222.75 202.894531 221.421875 L 210.621094 213.695312 C 208.921875 210.425781 207.507812 206.976562 206.394531 203.476562 L 200.769531 203.476562 C 189.3125 233.09375 150.976562 241.511719 128.253906 218.804688 C 107.089844 197.621094 112.730469 162.097656 139.113281 148.308594 C 147.636719 143.851562 157.183594 142.472656 166.289062 143.886719 C 179.199219 145.902344 190.585938 153.363281 197.410156 164.769531 L 206.394531 164.769531 C 207.507812 161.269531 208.921875 157.820312 210.621094 154.546875 L 202.894531 146.820312 L 202.910156 146.820312 C 201.691406 145.601562 201.441406 143.675781 202.398438 142.171875 C 204.996094 138.15625 207.933594 134.410156 211.167969 130.960938 Z M 211.167969 130.960938 " fill-opacity="1" fill-rule="nonzero"/></g></svg>